<svg width="500" height="500" viewBox="0 0 500 500" xmlns="http://www.w3.org/2000/svg">
  <g transform="translate(73.5) scale(1.6835)">
    <path fill="#000" d="M93.26 245.565c-4.474-1.204-7.804-4.22-9.357-8.473-.855-2.343-.811-6.47.094-8.89l.661-1.767-10.61-10.533c-22.186-22.025-21.32-21.11-22.631-23.915-.656-1.404-.85-2.29-1.102-5.012-.374-4.052-.163-11.414.42-14.685 2.636-14.763 10.74-30.994 21.931-43.92 4.94-5.706 11.861-12.222 18.024-16.97 7.282-5.608 11.379-8.192 29.105-18.355 10.393-5.958 15.909-10.204 20.621-15.873 2.279-2.74 5.988-8.915 5.451-8.73-.168.057-.22.116-.276.224-.19.37-4.458 4.74-7.204 6.988-3.255 2.665-5.717 4.34-9.907 6.738-3.194 1.828-5.587 3.04-18.872 9.555-4.147 2.034-9.445 4.788-11.774 6.12-21.1 12.075-36.782 28.007-46.232 46.971-2.379 4.775-4.903 11.673-5.783 15.808-.303 1.425-.348 1.487-.702.981-.754-1.077-3.229-6.26-4.037-8.455-1.64-4.454-2.756-9.42-3.466-15.427-.434-3.676-.147-12.962.517-16.72 3.304-18.704 13.444-34.319 28.88-44.472 10.043-6.606 20.896-10.821 35.321-13.717 3.202-.642 6.416-1.248 7.144-1.345 1.107-.148 7.5-1.138 10.319-1.598 5.23-.853 11.634-2.457 16.744-4.195 5.918-2.012 9.836-3.873 13.786-6.545 3.761-2.545 4.331-2.863 5.135-2.868 1-.006 2.147.622 2.793 1.53 1.57 2.203 4.495 15.67 5.215 23.998.076.873.195 1.859.265 2.19.07.332.126 3.82.124 7.752-.007 11.233-1.12 18.968-4.03 28.026-2.402 7.472-6.763 15.677-11.813 22.225-2.266 2.937-8.763 9.437-11.948 11.95-12.785 10.092-30.162 17.062-50.403 20.217-5.149.802-5.008.76-5.383 1.585-.429.94-.404 9.026.03 9.904.18.364.922.96 1.65 1.323l1.322.661 24.585.076 24.585.075 1.344-.662c1.008-.496 3.259-2.579 8.992-8.32l7.648-7.659-.305-1.522c-.812-4.043-.072-7.93 2.086-10.96 4.696-6.591 14.238-7.428 19.939-1.749 2.637 2.628 3.866 5.581 3.86 9.28-.01 5.111-2.756 9.586-7.238 11.788-3.888 1.91-6.27 2.047-11.193.639-.485-.139-1.983 1.233-9.595 8.79-6.246 6.2-9.436 9.18-10.37 9.683l-1.35.728H90.828l7.018 6.945c4.1 4.058 7.428 7.135 8.002 7.402.898.416 2.468.456 18.198.463l17.216.007.567-1.009c2.08-3.702 6.084-6.204 10.51-6.57 8.883-.734 15.74 7.233 13.858 16.098-1.363 6.418-8.376 11.268-14.85 10.271-4.409-.678-8.206-3.357-10.04-7.083l-.819-1.662-18.604.014-18.603.015-1.268-.654c-1.456-.75-2.582-1.738-12.689-11.14a1912 1912 0 0 0-12.867-11.856c-7.427-6.753-7.562-7.006-7.594-14.28-.04-8.765-.253-9.398-2.647-7.862-4.043 2.594-5.087 5.556-5.13 14.551l.022 5.705.715 1.571c.634 1.392 2.703 3.531 15.437 16.305l14.672 14.717 1.208-.364c1.629-.49 5.196-.46 6.962.059 1.655.486 4.038 1.708 5.03 2.58 5.918 5.196 6.324 14.241.883 19.689-3.349 3.353-8.41 4.79-12.755 3.62m5.73-9.488c2.4-1.515 2.821-4.805.878-6.859-1.016-1.074-1.965-1.498-3.352-1.498-2.301 0-3.884 1.201-4.623 3.507-.263.822-.245 1.215.107 2.273 1.028 3.096 4.272 4.292 6.99 2.577m55.889-22.944c1.196-.398 2.803-1.962 3.175-3.088.732-2.218-.402-4.837-2.541-5.873-2.898-1.403-6.116.42-6.865 3.89-.13.601-.02 1.212.375 2.107.715 1.617 1.217 2.167 2.522 2.766 1.23.565 2.08.616 3.334.198m10.928-52.712c1.272-.97 1.843-2.134 1.851-3.775.013-2.46-2.102-4.605-4.527-4.59-3.096.017-5.504 3.131-4.582 5.925.407 1.234 1.48 2.505 2.507 2.971 1.308.594 3.615.336 4.75-.53"/>
  </g>
</svg>