<?xml version="1.0" encoding="UTF-8"?>
<svg xmlns="http://www.w3.org/2000/svg" width="176" height="160" viewBox="0 0 176 160" fill="none">
  <path d="M47.1763 0C51.1962 0 53.2061 0 54.7415 0.782177C56.0921 1.4702 57.1902 2.56804 57.8783 3.91836C58.6607 5.45347 58.6607 7.46304 58.6607 11.4822V61.9671C58.6607 67.9586 58.6607 70.9544 57.3983 72.7908C56.2954 74.3951 54.5879 75.4827 52.6675 75.804C50.4693 76.1717 47.7537 74.9056 42.3226 72.3734L28.1802 65.7796C17.9681 61.0182 12.8621 58.6376 9.12354 54.9643C5.81831 51.7168 3.29654 47.759 1.74968 43.3916C0 38.4515 0 32.8186 0 21.5529V11.4822C0 7.46304 0 5.45347 0.782325 3.91836C1.47048 2.56804 2.56853 1.4702 3.91911 0.782177C5.45451 0 7.46446 0 11.4844 0H47.1763Z" fill="#FF5F3B"></path>
  <path d="M164.516 0C168.536 0 170.546 0 172.081 0.782177C173.431 1.4702 174.53 2.56804 175.218 3.91836C176 5.45347 176 7.46304 176 11.4822V21.559C176 32.8247 176 38.4576 174.25 43.3977C172.703 47.7651 170.182 51.7229 166.876 54.9704C163.138 58.6437 158.032 61.0243 147.82 65.7857L117.339 79.997V11.4822C117.339 7.46304 117.339 5.45347 118.122 3.91836C118.81 2.56804 119.908 1.4702 121.259 0.782177C122.794 0 124.804 0 128.824 0H164.516Z" fill="#FF5F3B"></path>
  <path d="M117.334 79.9969V148.518C117.334 152.537 117.334 154.547 116.551 156.082C115.863 157.432 114.765 158.53 113.414 159.218C111.879 160 109.869 160 105.849 160H70.1573C66.1375 160 64.1275 160 62.5921 159.218C61.2415 158.53 60.1435 157.432 59.4553 156.082C58.673 154.547 58.673 152.537 58.673 148.518V138.435C58.673 127.169 58.673 121.536 60.4227 116.596C61.9695 112.229 64.4913 108.271 67.7965 105.024C71.5351 101.35 76.6411 98.9696 86.8532 94.2082L117.334 79.9969Z" fill="#FF5F3B"></path>
</svg>
